<?xml version="1.0" encoding="UTF-8"?>
<svg width="600px" height="600px" viewBox="0 0 600 600" version="1.1" xmlns="http://www.w3.org/2000/svg" xmlns:xlink="http://www.w3.org/1999/xlink">
    <title>ico_friends_svg</title>
    <g id="ico_friends_svg" stroke="none" stroke-width="1" fill="none" fill-rule="evenodd">
        <g id="Group">
            <g id="ico_wllpaper_arr" transform="translate(14.000000, 6.000000)" fill="#000000" fill-rule="nonzero">
                <path d="M21.6779355,18.5846029 C21.6978091,19.1419441 21.4884455,19.7049473 21.0533787,20.1203959 C20.9820345,20.1885229 20.9072823,20.2509805 20.8296891,20.3077689 L3.6899788,36.6721199 C2.83265034,37.4907891 1.48317788,37.4907891 0.625849416,36.6721199 C0.603355196,36.6506401 0.581359396,36.6286443 0.559879516,36.6061501 C-0.211667624,35.7981687 -0.182131884,34.5177079 0.625849416,33.7461609 L0.625849416,33.7461609 L16.4417847,18.6430223 L0.625849416,3.53996091 C0.614602296,3.52922097 0.603479796,3.51835205 0.592484076,3.50735633 L0.559879516,3.47399101 C-0.211667624,2.66600971 -0.182131884,1.38554895 0.625849416,0.61400181 C1.48317788,-0.20466727 2.83265034,-0.20466727 3.6899788,0.61400181 L3.6899788,0.61400181 L20.8296891,16.9783529 C20.9072823,17.0351413 20.9820345,17.0975989 21.0533787,17.1657259 C21.0758729,17.1872059 21.0978687,17.2092017 21.1193485,17.2316959 C21.4754471,17.6046103 21.6609011,18.0781713 21.6779355,18.5558923 L21.6779355,18.5846029 Z" id="Combined-Shape"></path>
            </g>
            <rect id="Rectangle" x="0" y="0" width="48" height="48"></rect>
        </g>
        <g id="Group-2" transform="translate(60.000000, 0.000000)">
            <g id="32" transform="translate(12.000000, 12.000000)" stroke="#000000" stroke-width="3">
                <rect id="Rectangle" x="0" y="0" width="40" height="26" rx="4"></rect>
                <line x1="19.7876976" y1="26" x2="19.7876976" y2="37" id="Line-4" stroke-linecap="square"></line>
                <line x1="11.7876976" y1="37" x2="27.7876976" y2="37" id="Line-5" stroke-linecap="round"></line>
            </g>
            <rect id="Rectangle" x="0" y="0" width="64" height="64"></rect>
        </g>
        <g id="Group-3" transform="translate(140.000000, 0.000000)">
            <g id="32" transform="translate(18.000000, 10.000000)" stroke="#363636" stroke-width="3">
                <rect id="Rectangle" x="0" y="0" width="26" height="44" rx="4"></rect>
                <line x1="10" y1="6.4289928" x2="16" y2="6.4289928" id="Line-3" stroke-linecap="round"></line>
            </g>
            <rect id="Rectangle" x="0" y="0" width="64" height="64"></rect>
        </g>
        <g id="Group-4" transform="translate(220.000000, 0.000000)">
            <rect id="Rectangle" x="0" y="0" width="64" height="64"></rect>
            <g id="32" transform="translate(5.000000, 5.000000)">
                <circle id="Oval" stroke="#007CEA" stroke-width="2" fill="#0087FF" fill-rule="nonzero" cx="27" cy="27" r="27"></circle>
                <g id="Group-6" stroke-linecap="round" stroke-linejoin="round" transform="translate(17.174776, 16.621114)" stroke="#FFFFFF" stroke-width="4">
                    <polyline id="Path" transform="translate(9.825224, 11.930142) rotate(45.000000) translate(-9.825224, -11.930142) " points="16.7727067 4.9826599 16.7727067 18.8776251 2.87774151 18.8776251"></polyline>
                    <line x1="9.82522413" y1="21.7553666" x2="9.82522413" y2="0" id="Path-3"></line>
                </g>
            </g>
        </g>
        <g id="Download" transform="translate(410.000000, 0.000000)">
            <circle id="Oval" stroke="#007CEA" stroke-width="2" fill="#0087FF" cx="16" cy="16" r="15"></circle>
            <g id="Group-6" transform="translate(10.385586, 9.142857)" stroke="#FFFFFF" stroke-linecap="round" stroke-linejoin="round" stroke-width="2.5">
                <polyline id="Path" transform="translate(5.614414, 7.743575) rotate(45.000000) translate(-5.614414, -7.743575) " points="9.58440381 3.77358482 9.58440381 11.7135649 1.64442372 11.7135649"></polyline>
                <line x1="5.61441376" y1="13.3579886" x2="5.61441376" y2="0.926350621" id="Path-3"></line>
            </g>
        </g>
        <g id="Group" transform="translate(290.000000, 0.000000)" stroke="#000000" stroke-width="2">
            <g id="Group-5" transform="translate(12.000000, 6.000000)">
                <rect id="Rectangle" x="1" y="1" width="22" height="34" rx="4"></rect>
                <line x1="8.5" y1="5" x2="15.5" y2="5" id="Line" stroke-linecap="round"></line>
            </g>
        </g>
        <g id="Group" transform="translate(350.000000, 0.000000)" stroke="#000000" stroke-width="2">
            <g id="Icon" transform="translate(9.000000, 9.750000)">
                <rect id="Rectangle" x="0" y="0" width="30" height="19.5" rx="3"></rect>
                <line x1="14.8407732" y1="19.5" x2="14.8407732" y2="27.75" id="Line-4" stroke-linecap="square"></line>
                <line x1="8.84077322" y1="27.75" x2="20.8407732" y2="27.75" id="Line-5" stroke-linecap="round"></line>
            </g>
        </g>
        <g id="btn/tag30[hashtag]" transform="translate(0.000000, 60.000000)">
            <rect id="Rectangle" fill="#FF447F" x="0" y="0" width="46" height="30" rx="3.53846154"></rect>
            <g id="txt" transform="translate(7.885944, 6.441176)" fill="#FFFFFF" fill-rule="nonzero">
                <g id="플친">
                    <path d="M3.36153846,4.25294118 L3.36153846,2.17058824 L1.29153846,2.17058824 L1.29153846,0.441176471 L13.4107692,0.441176471 L13.4107692,2.17058824 L11.3407692,2.17058824 L11.3407692,4.25294118 L13.2869231,4.25294118 L13.2869231,5.98235294 L1.39769231,5.98235294 L1.39769231,4.25294118 L3.36153846,4.25294118 Z M9.02307692,4.25294118 L9.02307692,2.17058824 L5.67923077,2.17058824 L5.67923077,4.25294118 L9.02307692,4.25294118 Z M0,6.81176471 L14.72,6.81176471 L14.72,8.64705882 L0,8.64705882 L0,6.81176471 Z M4.01615385,13.5705882 L4.01615385,14.4529412 L13.3576923,14.4529412 L13.3576923,16.1294118 L1.69846154,16.1294118 L1.69846154,12.0176471 L10.6330769,12.0176471 L10.6330769,11.2235294 L1.68076923,11.2235294 L1.68076923,9.54705882 L12.9330769,9.54705882 L12.9330769,13.5705882 L4.01615385,13.5705882 Z" id="Shape"></path>
                    <path d="M29.4094406,0 L29.4094406,11.8941176 L27.0563636,11.8941176 L27.0563636,0 L29.4094406,0 Z M26.0302098,8.11764706 L24.950979,9.93529412 C24.0191841,9.67647059 23.2318765,9.29117647 22.5890559,8.77941176 C21.9462354,8.26764706 21.4361072,7.67058824 21.0586713,6.98823529 C20.6930303,7.72941176 20.1858508,8.38235294 19.5371329,8.94705882 C18.8884149,9.51176471 18.0863636,9.92941176 17.130979,10.2 L16.0340559,8.4 C16.6945688,8.2 17.26662,7.93823529 17.7502098,7.61470588 C18.2337995,7.29117647 18.6318765,6.92647059 18.9444406,6.52058824 C19.2570047,6.11470588 19.4870047,5.67941176 19.6344406,5.21470588 C19.7818765,4.75 19.8555944,4.27647059 19.8555944,3.79411765 L19.8555944,3.70588235 L16.5648252,3.70588235 L16.5648252,1.87058824 L19.8555944,1.87058824 L19.8555944,0.0882352941 L22.190979,0.0882352941 L22.190979,1.87058824 L25.4640559,1.87058824 L25.4640559,3.70588235 L22.190979,3.70588235 L22.190979,3.79411765 C22.190979,4.22941176 22.2676457,4.66764706 22.420979,5.10882353 C22.5743124,5.55 22.8072611,5.96470588 23.1198252,6.35294118 C23.4323893,6.74117647 23.8304662,7.08823529 24.3140559,7.39411765 C24.7976457,7.7 25.369697,7.94117647 26.0302098,8.11764706 Z M20.8994406,14.1176471 L29.8163636,14.1176471 L29.8163636,15.9705882 L18.5640559,15.9705882 L18.5640559,10.8529412 L20.8994406,10.8529412 L20.8994406,14.1176471 Z" id="Shape"></path>
                </g>
            </g>
        </g>
        <g id="btn/tag30[hashtag]" transform="translate(60.000000, 60.000000)">
            <rect id="Rectangle" fill="#FF447F" x="0" y="0" width="106" height="30" rx="3.52941176"></rect>
            <g id="txt" transform="translate(8.215379, 7.609041)" fill="#FFFFFF" fill-rule="nonzero">
                <path d="M0,13.5674298 L0,0.733205214 L5.06912879,0.733205214 C6.04363952,0.733205214 6.87385574,0.918073195 7.55977746,1.28780916 C8.24569918,1.65754512 8.76955098,2.16932654 9.13133286,2.82315341 C9.49311474,3.47698028 9.67400568,4.23003008 9.67400568,5.08230281 C9.67400568,5.93457553 9.4899779,6.68658088 9.12192235,7.33831885 C8.75386679,7.99005682 8.22165009,8.49766043 7.52527225,8.86112968 C6.82889441,9.22459893 5.98717645,9.40633356 5.00011837,9.40633356 L1.76917614,9.40633356 L1.76917614,7.23178476 L4.56096117,7.23178476 C5.08376736,7.23178476 5.51560527,7.14091745 5.85647491,6.95918282 C6.19734454,6.7774482 6.45247396,6.52469084 6.62186316,6.20091076 C6.79125237,5.87713068 6.87594697,5.50426136 6.87594697,5.08230281 C6.87594697,4.65616644 6.79125237,4.28329713 6.62186316,3.96369485 C6.45247396,3.64409258 6.19629893,3.39551303 5.85333807,3.21795622 C5.51037721,3.0403994 5.07540246,2.95162099 4.54841383,2.95162099 L2.71650095,2.95162099 L2.71650095,13.5674298 L0,13.5674298 Z" id="Path"></path>
                <polygon id="Path" points="13.664062 0.733205214 13.664062 13.5674298 10.9914768 13.5674298 10.9914768 0.733205214"></polygon>
                <path d="M21.5751648,9.46900067 L21.5751648,3.94176136 L24.24775,3.94176136 L24.24775,13.5674298 L21.6818172,13.5674298 L21.6818172,11.8190174 L21.5814384,11.8190174 C21.3639511,12.3830214 21.0032148,12.8363135 20.4992296,13.1788937 C19.9952445,13.5214739 19.38147,13.692764 18.6579062,13.692764 C18.013809,13.692764 17.4470871,13.5465408 16.9577405,13.2540943 C16.4683939,12.9616477 16.0867454,12.5459559 15.812795,12.0070187 C15.5388445,11.4680816 15.3997781,10.8226103 15.3955956,10.0706049 L15.3955956,3.94176136 L18.0681809,3.94176136 L18.0681809,9.59433489 C18.0723633,10.1625167 18.2250227,10.611631 18.5261591,10.9416778 C18.8272954,11.2717246 19.2309018,11.436748 19.7369782,11.436748 C20.0590268,11.436748 20.3601632,11.3625919 20.6403873,11.2142797 C20.9206114,11.0659676 21.1475093,10.8455882 21.3210809,10.5531417 C21.4946526,10.2606952 21.5793472,9.89931484 21.5751648,9.46900067 Z" id="Path"></path>
                <path d="M33.9970393,6.68658088 L31.5503063,6.83698195 C31.5084818,6.62809158 31.4185592,6.43904579 31.2805383,6.26984459 C31.1425175,6.10064338 30.9616266,5.96486464 30.7378655,5.86250836 C30.5141045,5.76015207 30.2474733,5.70897393 29.937972,5.70897393 C29.5239095,5.70897393 29.174675,5.79566344 28.8902684,5.96904245 C28.6058619,6.14242146 28.4636586,6.37324532 28.4636586,6.66151404 C28.4636586,6.89129345 28.5556725,7.0855615 28.7397003,7.24431818 C28.923728,7.40307487 29.239503,7.53049799 29.6870251,7.62658757 L31.4311065,7.9775234 C32.3679752,8.16970254 33.0664443,8.47886029 33.5265137,8.90499666 C33.9865832,9.33113302 34.2166179,9.89095922 34.2166179,10.5844753 C34.2166179,11.2153242 34.0315445,11.7688837 33.6613977,12.2451537 C33.2912509,12.7214238 32.7851745,13.0922042 32.1431685,13.357495 C31.5011625,13.6227858 30.7619146,13.7554311 29.9254247,13.7554311 C28.6497776,13.7554311 27.634488,13.4890959 26.8795558,12.9564255 C26.1246237,12.423755 25.6823297,11.697861 25.5526737,10.7787433 L28.1813433,10.6408757 C28.2608098,11.0294118 28.4532025,11.3249916 28.7585213,11.5276153 C29.0638401,11.730239 29.4548991,11.8315508 29.9316984,11.8315508 C30.4001327,11.8315508 30.7775988,11.7406835 31.0640966,11.5589489 C31.3505944,11.3772142 31.4959345,11.1422126 31.5001169,10.8539439 C31.4959345,10.611631 31.3934645,10.4121407 31.1927069,10.2554729 C30.9919493,10.0988051 30.682448,9.97869318 30.2642031,9.89513703 L28.5954058,9.56300134 C27.6543546,9.375 26.9548399,9.04913102 26.4968617,8.58539439 C26.0388835,8.12165775 25.8098944,7.53049799 25.8098944,6.81191511 C25.8098944,6.1935996 25.978238,5.66092914 26.3149252,5.21390374 C26.6516123,4.76687834 27.1263204,4.42220922 27.7390492,4.17989639 C28.3517781,3.93758356 29.0701138,3.81642714 29.8940563,3.81642714 C31.1111491,3.81642714 32.0699757,4.0733623 32.770536,4.58723262 C33.4710963,5.10110294 33.8799307,5.8008857 33.9970393,6.68658088 Z" id="Path"></path>
                <polygon id="Path" points="39.2481037 13.5674298 39.2481037 0.733205214 47.7552059 0.733205214 47.7552059 2.97042112 41.9646046 2.97042112 41.9646046 6.0285762 47.1905752 6.0285762 47.1905752 8.26579211 41.9646046 8.26579211 41.9646046 13.5674298"></polygon>
                <path d="M48.9660246,13.5674298 L48.9660246,3.94176136 L51.557052,3.94176136 L51.557052,5.62123997 L51.6574308,5.62123997 C51.8330937,5.0238135 52.1279564,4.57156584 52.5420189,4.26449699 C52.9560814,3.95742814 53.4328806,3.80389372 53.9724166,3.80389372 C54.106255,3.80389372 54.2505495,3.81224933 54.4053001,3.82896056 C54.5600508,3.84567179 54.6959804,3.86864973 54.813089,3.89789439 L54.813089,6.26671123 C54.6876155,6.22911096 54.5140438,6.1956885 54.292374,6.16644385 C54.0707042,6.1371992 53.8678554,6.12257687 53.6838276,6.12257687 C53.2906773,6.12257687 52.9403972,6.20717747 52.6329872,6.37637868 C52.3255771,6.54557988 52.0829951,6.78058155 51.905241,7.08138369 C51.7274869,7.38218583 51.6386098,7.72894385 51.6386098,8.12165775 L51.6386098,13.5674298 L48.9660246,13.5674298 Z" id="Path"></path>
                <path d="M55.785508,13.5674298 L55.785508,3.94176136 L58.4580932,3.94176136 L58.4580932,13.5674298 L55.785508,13.5674298 Z M57.134348,2.70095254 C56.7370153,2.70095254 56.3961456,2.56830715 56.1117391,2.30301638 C55.8273325,2.0377256 55.6851292,1.71916778 55.6851292,1.34734291 C55.6851292,0.979695856 55.8273325,0.663226939 56.1117391,0.397936163 C56.3961456,0.132645388 56.734924,0 57.1280743,0 C57.5295894,0 57.8715047,0.132645388 58.15382,0.397936163 C58.4361354,0.663226939 58.577293,0.979695856 58.577293,1.34734291 C58.577293,1.71916778 58.4361354,2.0377256 58.15382,2.30301638 C57.8715047,2.56830715 57.5316807,2.70095254 57.134348,2.70095254 Z" id="Shape"></path>
                <path d="M64.5811988,13.7554311 C63.5899583,13.7554311 62.7377842,13.5538519 62.0246765,13.1506935 C61.3115689,12.7475351 60.7626224,12.1751755 60.3778371,11.4336146 C59.9930517,10.6920538 59.800659,9.81366979 59.800659,8.79846257 C59.800659,7.80832219 59.9930517,6.93933824 60.3778371,6.1915107 C60.7626224,5.44368316 61.3052952,4.86087901 62.0058555,4.44309826 C62.7064158,4.02531751 63.5293127,3.81642714 64.4745463,3.81642714 C65.1102787,3.81642714 65.7031409,3.91773897 66.253133,4.12036263 C66.8031251,4.3229863 67.2841068,4.62692179 67.6960781,5.03216912 C68.1080493,5.43741644 68.4290523,5.94606451 68.6590871,6.5581133 C68.8891218,7.1701621 69.0041391,7.88561163 69.0041391,8.7044619 L69.0041391,9.43766711 L60.8671836,9.43766711 L60.8671836,7.78325535 L66.4883958,7.78325535 C66.4883958,7.39889706 66.4047468,7.05840575 66.2374488,6.76178142 C66.0701508,6.46515709 65.8390705,6.23224432 65.5442078,6.06304311 C65.2493451,5.89384191 64.9074299,5.80924131 64.5184621,5.80924131 C64.1127645,5.80924131 63.7541194,5.90219753 63.4425269,6.08810996 C63.1309344,6.27402239 62.8873068,6.52260194 62.7116439,6.8338486 C62.535981,7.14509525 62.4460583,7.49080882 62.4418759,7.8709893 L62.4418759,9.44393382 C62.4418759,9.92020388 62.5307529,10.3317179 62.708507,10.6784759 C62.8862611,11.025234 63.1382537,11.2926136 63.4644848,11.480615 C63.7907158,11.6686163 64.1775924,11.762617 64.6251145,11.762617 C64.9220684,11.762617 65.1939276,11.7208389 65.4406922,11.6372828 C65.6874567,11.5537266 65.8986704,11.4283924 66.0743333,11.2612801 C66.2499961,11.0941678 66.3838345,10.8894552 66.4758484,10.6471424 L68.9476761,10.8100769 C68.8222026,11.4033255 68.5660276,11.9203292 68.179151,12.3610879 C67.7922744,12.8018466 67.2945629,13.1444268 66.6860165,13.3888285 C66.0774701,13.6332303 65.3758642,13.7554311 64.5811988,13.7554311 Z" id="Path"></path>
                <path d="M73.0192902,8.00259024 L73.0192902,13.5674298 L70.3467049,13.5674298 L70.3467049,3.94176136 L72.8938167,3.94176136 L72.8938167,5.64004011 L73.0067428,5.64004011 C73.2200477,5.0802139 73.5776472,4.63632186 74.0795411,4.30836397 C74.5814351,3.98040608 75.1899815,3.81642714 75.9051803,3.81642714 C76.5743722,3.81642714 77.1578239,3.9626504 77.6555354,4.25509693 C78.1532469,4.54754345 78.5401235,4.96427975 78.8161652,5.50530582 C79.0922068,6.04633189 79.2302277,6.69075869 79.2302277,7.43858623 L79.2302277,13.5674298 L76.5576424,13.5674298 L76.5576424,7.91485628 C76.5618249,7.32578543 76.4112567,6.86518215 76.1059379,6.53304646 C75.8006191,6.20091076 75.3802829,6.03484291 74.8449294,6.03484291 C74.4852387,6.03484291 74.1684182,6.11213235 73.8944677,6.26671123 C73.6205173,6.42129011 73.4072124,6.64584726 73.254553,6.94038269 C73.1018935,7.23491811 73.0234726,7.5889873 73.0192902,8.00259024 Z" id="Path"></path>
                <path d="M84.4812925,13.7240976 C83.7493639,13.7240976 83.0874912,13.5350518 82.4956746,13.1569602 C81.903858,12.7788686 81.4354237,12.2211314 81.0903716,11.4837483 C80.7453195,10.7463653 80.5727935,9.84082553 80.5727935,8.76712901 C80.5727935,7.66418783 80.7505476,6.74611464 81.1060558,6.01290943 C81.461564,5.27970421 81.9352264,4.73032253 82.527043,4.36476437 C83.1188596,3.99920622 83.7681849,3.81642714 84.4750189,3.81642714 C85.0145548,3.81642714 85.4652138,3.90729445 85.8269957,4.08902908 C86.1887775,4.2707637 86.481549,4.49636531 86.70531,4.76583389 C86.9290711,5.03530247 87.0995059,5.2995488 87.2166145,5.55857286 L87.2981723,5.55857286 L87.2981723,0.733205214 L89.9644838,0.733205214 L89.9644838,13.5674298 L87.3295406,13.5674298 L87.3295406,12.0258189 L87.2166145,12.0258189 C87.091141,12.2931985 86.9144325,12.5574449 86.686489,12.8185578 C86.4585455,13.0796708 86.1636828,13.2958723 85.801901,13.4671624 C85.4401191,13.6384525 84.9999163,13.7240976 84.4812925,13.7240976 Z M85.3282386,11.5996825 C85.7590309,11.5996825 86.1239496,11.4816594 86.4229947,11.2456133 C86.7220398,11.0095672 86.9520746,10.6784759 87.1130989,10.2523396 C87.2741232,9.82620321 87.3546353,9.32695521 87.3546353,8.75459559 C87.3546353,8.18223596 87.2751688,7.68507687 87.1162357,7.26311832 C86.9573026,6.84115976 86.7272679,6.51529078 86.4261315,6.28551136 C86.1249952,6.05573195 85.7590309,5.94084225 85.3282386,5.94084225 C84.8890814,5.94084225 84.5189346,6.05990976 84.2177982,6.29804479 C83.9166618,6.53617981 83.6887184,6.8662266 83.5339677,7.28818516 C83.3792171,7.71014372 83.3018418,8.19894719 83.3018418,8.75459559 C83.3018418,9.31442179 83.3802627,9.80844753 83.5371046,10.2366728 C83.6939464,10.6648981 83.9218899,10.9991227 84.220935,11.2393466 C84.5199802,11.4795705 84.8890814,11.5996825 85.3282386,11.5996825 Z" id="Shape"></path>
            </g>
        </g>
        <g id="btn/tag30[hashtag]" transform="translate(70.000000, 100.000000)">
            <rect id="Rectangle" fill="#FF447F" x="0" y="0" width="120" height="34" rx="4"></rect>
            <g id="txt" transform="translate(9.300429, 8.623580)" fill="#FFFFFF" fill-rule="nonzero">
                <path d="M0,15.3764205 L0,0.830965909 L5.73863636,0.830965909 C6.84185606,0.830965909 7.78172348,1.04048295 8.55823864,1.45951705 C9.33475379,1.87855114 9.92779356,2.45857008 10.337358,3.19957386 C10.7469223,3.94057765 10.9517045,4.79403409 10.9517045,5.75994318 C10.9517045,6.72585227 10.7433712,7.578125 10.3267045,8.31676136 C9.91003788,9.05539773 9.30752841,9.63068182 8.51917614,10.0426136 C7.73082386,10.4545455 6.77793561,10.6605114 5.66051136,10.6605114 L2.00284091,10.6605114 L2.00284091,8.19602273 L5.16335227,8.19602273 C5.75520833,8.19602273 6.24408144,8.09303977 6.62997159,7.88707386 C7.01586174,7.68110795 7.3046875,7.39464962 7.49644886,7.02769886 C7.68821023,6.66074811 7.78409091,6.23816288 7.78409091,5.75994318 C7.78409091,5.27698864 7.68821023,4.85440341 7.49644886,4.4921875 C7.3046875,4.12997159 7.01467803,3.84824811 6.62642045,3.64701705 C6.23816288,3.44578598 5.74573864,3.34517045 5.14914773,3.34517045 L3.07528409,3.34517045 L3.07528409,15.3764205 L0,15.3764205 Z" id="Path"></path>
                <polygon id="Path" points="15.4687495 0.830965909 15.4687495 15.3764205 12.4431813 15.3764205 12.4431813 0.830965909"></polygon>
                <path d="M24.4247148,10.7315341 L24.4247148,4.46732955 L27.450283,4.46732955 L27.450283,15.3764205 L24.5454535,15.3764205 L24.5454535,13.3948864 L24.4318171,13.3948864 C24.185605,14.0340909 23.7772243,14.547822 23.206675,14.9360795 C22.6361258,15.3243371 21.9412868,15.5184659 21.122158,15.5184659 C20.3929913,15.5184659 19.7514194,15.3527462 19.1974421,15.0213068 C18.6434648,14.6898674 18.2114099,14.21875 17.9012773,13.6079545 C17.5911447,12.9971591 17.433711,12.265625 17.4289762,11.4133523 L17.4289762,4.46732955 L20.4545444,4.46732955 L20.4545444,10.8735795 C20.4592792,11.5175189 20.6321012,12.0265152 20.9730103,12.4005682 C21.3139194,12.7746212 21.7708322,12.9616477 22.3437489,12.9616477 C22.7083322,12.9616477 23.0492413,12.8776042 23.3664762,12.709517 C23.683711,12.5414299 23.9405766,12.2916667 24.1370728,11.9602273 C24.333569,11.6287879 24.4294497,11.2192235 24.4247148,10.7315341 Z" id="Path"></path>
                <path d="M38.4872143,7.578125 L35.7173279,7.74857955 C35.6699794,7.51183712 35.5681802,7.29758523 35.4119302,7.10582386 C35.2556802,6.9140625 35.050898,6.76017992 34.7975836,6.64417614 C34.5442692,6.52817235 34.2424226,6.47017045 33.8920438,6.47017045 C33.4232938,6.47017045 33.027934,6.56841856 32.7059643,6.76491477 C32.3839946,6.96141098 32.2230097,7.22301136 32.2230097,7.54971591 C32.2230097,7.81013258 32.3271764,8.03030303 32.5355097,8.21022727 C32.7438431,8.39015152 33.1013241,8.53456439 33.6079529,8.64346591 L35.5823847,9.04119318 C36.6429908,9.25899621 37.4337105,9.609375 37.9545438,10.0923295 C38.4753772,10.5752841 38.7357938,11.2097538 38.7357938,11.9957386 C38.7357938,12.7107008 38.5262768,13.3380682 38.1072427,13.8778409 C37.6882086,14.4176136 37.1152919,14.8378314 36.3884927,15.1384943 C35.6616934,15.4391572 34.824809,15.5894886 33.8778393,15.5894886 C32.4337105,15.5894886 31.284326,15.287642 30.4296859,14.6839489 C29.5750457,14.0802557 29.0743355,13.2575758 28.9275552,12.2159091 L31.9034075,12.0596591 C31.9933696,12.5 32.2111726,12.8349905 32.5568165,13.0646307 C32.9024605,13.2942708 33.3451688,13.4090909 33.8849415,13.4090909 C34.4152446,13.4090909 34.8425647,13.306108 35.1669018,13.100142 C35.4912389,12.8941761 35.6557749,12.6278409 35.6605097,12.3011364 C35.6557749,12.0265152 35.5397711,11.8004261 35.3124984,11.6228693 C35.0852256,11.4453125 34.7348468,11.3091856 34.261362,11.2144886 L32.3721575,10.8380682 C31.3068165,10.625 30.5149131,10.2556818 29.9964472,9.73011364 C29.4779813,9.20454545 29.2187484,8.53456439 29.2187484,7.72017045 C29.2187484,7.01941288 29.409326,6.4157197 29.7904813,5.90909091 C30.1716366,5.40246212 30.7090419,5.01183712 31.4026972,4.73721591 C32.0963525,4.4625947 32.9095628,4.32528409 33.8423279,4.32528409 C35.2201688,4.32528409 36.3056328,4.61647727 37.09872,5.19886364 C37.8918071,5.78125 38.3546385,6.57433712 38.4872143,7.578125 Z" id="Path"></path>
                <polygon id="Path" points="44.4318155 15.3764205 44.4318155 0.830965909 54.0624973 0.830965909 54.0624973 3.36647727 47.5070995 3.36647727 47.5070995 6.83238636 53.4232927 6.83238636 53.4232927 9.36789773 47.5070995 9.36789773 47.5070995 15.3764205"></polygon>
                <path d="M55.4332354,15.3764205 L55.4332354,4.46732955 L58.366474,4.46732955 L58.366474,6.37073864 L58.4801104,6.37073864 C58.678974,5.6936553 59.0127808,5.18110795 59.4815308,4.83309659 C59.9502808,4.48508523 60.4900535,4.31107955 61.100849,4.31107955 C61.2523642,4.31107955 61.4157164,4.32054924 61.5909058,4.33948864 C61.7660952,4.35842803 61.9199778,4.3844697 62.0525535,4.41761364 L62.0525535,7.10227273 C61.9105081,7.05965909 61.7140119,7.0217803 61.4630649,6.98863636 C61.2121179,6.95549242 60.9824778,6.93892045 60.7741445,6.93892045 C60.3290687,6.93892045 59.9325251,7.03480114 59.5845138,7.2265625 C59.2365024,7.41832386 58.9618812,7.68465909 58.7606501,8.02556818 C58.5594191,8.36647727 58.4588035,8.7594697 58.4588035,9.20454545 L58.4588035,15.3764205 L55.4332354,15.3764205 Z" id="Path"></path>
                <path d="M63.1534053,15.3764205 L63.1534053,4.46732955 L66.1789735,4.46732955 L66.1789735,15.3764205 L63.1534053,15.3764205 Z M64.6803939,3.06107955 C64.2305833,3.06107955 63.8446932,2.91074811 63.5227235,2.61008523 C63.2007538,2.30942235 63.0397689,1.94839015 63.0397689,1.52698864 C63.0397689,1.11032197 63.2007538,0.751657197 63.5227235,0.450994318 C63.8446932,0.150331439 64.2282159,0 64.6732916,0 C65.1278371,0 65.514911,0.150331439 65.8345132,0.450994318 C66.1541155,0.751657197 66.3139166,1.11032197 66.3139166,1.52698864 C66.3139166,1.94839015 66.1541155,2.30942235 65.8345132,2.61008523 C65.514911,2.91074811 65.1302045,3.06107955 64.6803939,3.06107955 Z" id="Shape"></path>
                <path d="M73.1107911,15.5894886 C71.988632,15.5894886 71.0239066,15.3610322 70.216615,14.9041193 C69.4093233,14.4472064 68.7878744,13.7985322 68.3522684,12.9580966 C67.9166623,12.117661 67.6988593,11.1221591 67.6988593,9.97159091 C67.6988593,8.84943182 67.9166623,7.86458333 68.3522684,7.01704545 C68.7878744,6.16950758 69.402221,5.50899621 70.1953081,5.03551136 C70.9883953,4.56202652 71.9199767,4.32528409 72.9900525,4.32528409 C73.7097494,4.32528409 74.3809142,4.44010417 75.0035468,4.66974432 C75.6261793,4.89938447 76.1706869,5.2438447 76.6370695,5.703125 C77.1034521,6.1624053 77.4668517,6.73887311 77.7272684,7.43252841 C77.987685,8.12618371 78.1178934,8.93702652 78.1178934,9.86505682 L78.1178934,10.6960227 L68.9062456,10.6960227 L68.9062456,8.82102273 L75.269882,8.82102273 C75.269882,8.38541667 75.175185,7.99952652 74.9857911,7.66335227 C74.7963972,7.32717803 74.5347968,7.06321023 74.20099,6.87144886 C73.8671831,6.6796875 73.4801093,6.58380682 73.0397684,6.58380682 C72.5804881,6.58380682 72.1744748,6.6891572 71.8217286,6.89985795 C71.4689824,7.11055871 71.1931775,7.3922822 70.9943138,7.74502841 C70.7954502,8.09777462 70.6936509,8.48958333 70.6889161,8.92045455 L70.6889161,10.703125 C70.6889161,11.2428977 70.7895316,11.7092803 70.9907627,12.1022727 C71.1919937,12.4952652 71.4772684,12.7982955 71.8465865,13.0113636 C72.2159047,13.2244318 72.6538782,13.3309659 73.160507,13.3309659 C73.4966812,13.3309659 73.8044464,13.2836174 74.0838025,13.1889205 C74.3631585,13.0942235 74.6022684,12.952178 74.801132,12.7627841 C74.9999956,12.5733902 75.1515108,12.3413826 75.2556775,12.0667614 L78.0539729,12.2514205 C77.9119275,12.9237689 77.621918,13.5097064 77.1839445,14.009233 C76.745971,14.5087595 76.182524,14.897017 75.4936036,15.1740057 C74.8046831,15.4509943 74.0104123,15.5894886 73.1107911,15.5894886 Z" id="Path"></path>
                <path d="M82.6633474,9.06960227 L82.6633474,15.3764205 L79.6377792,15.3764205 L79.6377792,4.46732955 L82.5213019,4.46732955 L82.5213019,6.39204545 L82.6491428,6.39204545 C82.8906201,5.75757576 83.2954496,5.25449811 83.8636315,4.8828125 C84.4318133,4.51112689 85.1207337,4.32528409 85.9303928,4.32528409 C86.6879686,4.32528409 87.3484799,4.49100379 87.9119269,4.82244318 C88.4753739,5.15388258 88.9133474,5.62618371 89.2258474,6.23934659 C89.5383474,6.85250947 89.6945974,7.58285985 89.6945974,8.43039773 L89.6945974,15.3764205 L86.6690292,15.3764205 L86.6690292,8.97017045 C86.673764,8.30255682 86.5033095,7.78053977 86.1576655,7.40411932 C85.8120216,7.02769886 85.3361693,6.83948864 84.7301087,6.83948864 C84.3229118,6.83948864 83.964247,6.92708333 83.6541144,7.10227273 C83.3439818,7.27746212 83.1025046,7.53196023 82.9296826,7.86576705 C82.7568606,8.19957386 82.6680822,8.60085227 82.6633474,9.06960227 Z" id="Path"></path>
                <path d="M95.6391991,15.5539773 C94.8106006,15.5539773 94.0613108,15.3397254 93.3913298,14.9112216 C92.7213487,14.4827178 92.1910457,13.8506155 91.8004207,13.0149148 C91.4097957,12.179214 91.2144832,11.1529356 91.2144832,9.93607955 C91.2144832,8.68607955 91.4157142,7.64559659 91.8181764,6.81463068 C92.2206385,5.98366477 92.7568601,5.3610322 93.4268411,4.94673295 C94.0968222,4.53243371 94.8319074,4.32528409 95.6320968,4.32528409 C96.2428923,4.32528409 96.7530722,4.42826705 97.1626366,4.63423295 C97.572201,4.84019886 97.9036404,5.09588068 98.1569548,5.40127841 C98.4102692,5.70667614 98.6032142,6.0061553 98.73579,6.29971591 L98.8281195,6.29971591 L98.8281195,0.830965909 L101.846585,0.830965909 L101.846585,15.3764205 L98.8636309,15.3764205 L98.8636309,13.6292614 L98.73579,13.6292614 C98.5937445,13.9322917 98.3936972,14.2317708 98.135648,14.5276989 C97.8775987,14.8236269 97.5437919,15.0686553 97.1342275,15.2627841 C96.7246631,15.4569129 96.2263203,15.5539773 95.6391991,15.5539773 Z M96.5980059,13.1463068 C97.0856953,13.1463068 97.4988108,13.0125473 97.8373525,12.7450284 C98.1758942,12.4775095 98.4363108,12.1022727 98.6186025,11.6193182 C98.8008942,11.1363636 98.89204,10.5705492 98.89204,9.921875 C98.89204,9.27320076 98.8020779,8.70975379 98.6221536,8.23153409 C98.4422294,7.75331439 98.1818127,7.38399621 97.8409036,7.12357955 C97.4999945,6.86316288 97.0856953,6.73295455 96.5980059,6.73295455 C96.1008468,6.73295455 95.6818127,6.86789773 95.3409036,7.13778409 C94.9999945,7.40767045 94.7419453,7.78172348 94.5667559,8.25994318 C94.3915665,8.73816288 94.3039718,9.29214015 94.3039718,9.921875 C94.3039718,10.5563447 94.3927502,11.1162405 94.570307,11.6015625 C94.7478639,12.0868845 95.0059131,12.4656723 95.3444548,12.7379261 C95.6829964,13.0101799 96.1008468,13.1463068 96.5980059,13.1463068 Z" id="Shape"></path>
            </g>
        </g>
        <g id="btn/tag30[hashtag]" transform="translate(0.000000, 100.000000)">
            <rect id="Rectangle" fill="#FF447F" x="0" y="0" width="52" height="34" rx="4"></rect>
            <g id="txt" transform="translate(8.914545, 7.300000)" fill="#FFFFFF" fill-rule="nonzero">
                <g id="플친">
                    <path d="M3.8,4.82 L3.8,2.46 L1.46,2.46 L1.46,0.5 L15.16,0.5 L15.16,2.46 L12.82,2.46 L12.82,4.82 L15.02,4.82 L15.02,6.78 L1.58,6.78 L1.58,4.82 L3.8,4.82 Z M10.2,4.82 L10.2,2.46 L6.42,2.46 L6.42,4.82 L10.2,4.82 Z M0,7.72 L16.64,7.72 L16.64,9.8 L0,9.8 L0,7.72 Z M4.54,15.38 L4.54,16.38 L15.1,16.38 L15.1,18.28 L1.92,18.28 L1.92,13.62 L12.02,13.62 L12.02,12.72 L1.9,12.72 L1.9,10.82 L14.62,10.82 L14.62,15.38 L4.54,15.38 Z" id="Shape"></path>
                    <path d="M33.2454545,0 L33.2454545,13.48 L30.5854545,13.48 L30.5854545,0 L33.2454545,0 Z M29.4254545,9.2 L28.2054545,11.26 C27.1521212,10.9666667 26.2621212,10.53 25.5354545,9.95 C24.8087879,9.37 24.2321212,8.69333333 23.8054545,7.92 C23.3921212,8.76 22.8187879,9.5 22.0854545,10.14 C21.3521212,10.78 20.4454545,11.2533333 19.3654545,11.56 L18.1254545,9.52 C18.8721212,9.29333333 19.5187879,8.99666667 20.0654545,8.63 C20.6121212,8.26333333 21.0621212,7.85 21.4154545,7.39 C21.7687879,6.93 22.0287879,6.43666667 22.1954545,5.91 C22.3621212,5.38333333 22.4454545,4.84666667 22.4454545,4.3 L22.4454545,4.2 L18.7254545,4.2 L18.7254545,2.12 L22.4454545,2.12 L22.4454545,0.1 L25.0854545,0.1 L25.0854545,2.12 L28.7854545,2.12 L28.7854545,4.2 L25.0854545,4.2 L25.0854545,4.3 C25.0854545,4.79333333 25.1721212,5.29 25.3454545,5.79 C25.5187879,6.29 25.7821212,6.76 26.1354545,7.2 C26.4887879,7.64 26.9387879,8.03333333 27.4854545,8.38 C28.0321212,8.72666667 28.6787879,9 29.4254545,9.2 Z M23.6254545,16 L33.7054545,16 L33.7054545,18.1 L20.9854545,18.1 L20.9854545,12.3 L23.6254545,12.3 L23.6254545,16 Z" id="Shape"></path>
                </g>
            </g>
        </g>
        <g id="btn/tag30[hashtag]" transform="translate(200.000000, 110.000000)">
            <rect id="Rectangle" fill="#FF447F" x="0" y="0" width="86" height="34" rx="4"></rect>
            <g id="카톡채널" transform="translate(8.000000, 7.280000)" fill="#FFFFFF" fill-rule="nonzero">
                <path d="M17.08,7.04 L17.08,9.22 L14.5,9.22 L14.5,18.4 L11.86,18.4 L11.86,0 L14.5,0 L14.5,7.04 L17.08,7.04 Z M1.14,1.78 L9.6,1.78 C9.6,3.19333333 9.49333333,4.55 9.28,5.85 C9.06666667,7.15 8.66333333,8.38333333 8.07,9.55 C7.47666667,10.7166667 6.64666667,11.8133333 5.58,12.84 C4.51333333,13.8666667 3.12,14.82 1.4,15.7 L0,13.66 C1.52,12.9 2.74333333,12.09 3.67,11.23 C4.59666667,10.37 5.32,9.43333333 5.84,8.42 L0.5,8.94 L0.16,6.7 L6.6,6.32 C6.69333333,5.93333333 6.77333333,5.54 6.84,5.14 C6.90666667,4.74 6.95333333,4.32 6.98,3.88 L1.14,3.88 L1.14,1.78 Z" id="Shape"></path>
                <path d="M27.6000622,9.78 L34.6200622,9.78 L34.6200622,11.88 L17.9600622,11.88 L17.9600622,9.78 L24.9600622,9.78 L24.9600622,8.46 L20.0400622,8.46 L20.0400622,0.46 L32.7200622,0.46 L32.7200622,2.46 L22.6600622,2.46 L22.6600622,3.46 L32.2800622,3.46 L32.2800622,5.38 L22.6600622,5.38 L22.6600622,6.46 L32.8600622,6.46 L32.8600622,8.46 L27.6000622,8.46 L27.6000622,9.78 Z M19.8200622,15.04 L19.8200622,12.96 L32.5800622,12.96 L32.5800622,18.46 L29.9400622,18.46 L29.9400622,15.04 L19.8200622,15.04 Z" id="Shape"></path>
                <path d="M49.3201244,0 L51.8201244,0 L51.8201244,18.42 L49.3201244,18.42 L49.3201244,9.22 L47.8201244,9.22 L47.8201244,17.6 L45.3601244,17.6 L45.3601244,0.3 L47.8201244,0.3 L47.8201244,7.06 L49.3201244,7.06 L49.3201244,0 Z M41.6001244,5.26 L41.6001244,5.56 C41.6001244,6.25333333 41.6634578,6.94333333 41.7901244,7.63 C41.9167911,8.31666667 42.1201244,8.96666667 42.4001244,9.58 C42.6801244,10.1933333 43.0434578,10.7533333 43.4901244,11.26 C43.9367911,11.7666667 44.4867911,12.1933333 45.1401244,12.54 L43.7401244,14.5 C42.9001244,14.0733333 42.2134578,13.51 41.6801244,12.81 C41.1467911,12.11 40.7134578,11.32 40.3801244,10.44 C40.0734578,11.4 39.6467911,12.27 39.1001244,13.05 C38.5534578,13.83 37.8601244,14.4533333 37.0201244,14.92 L35.5401244,12.94 C36.1934578,12.5666667 36.7467911,12.1033333 37.2001244,11.55 C37.6534578,10.9966667 38.0201244,10.3966667 38.3001244,9.75 C38.5801244,9.10333333 38.7834578,8.42 38.9101244,7.7 C39.0367911,6.98 39.1001244,6.26666667 39.1001244,5.56 L39.1001244,5.26 L36.1601244,5.26 L36.1601244,3.12 L39.1001244,3.12 L39.1001244,0.62 L41.6001244,0.62 L41.6001244,3.12 L44.5201244,3.12 L44.5201244,5.26 L41.6001244,5.26 Z" id="Shape"></path>
                <path d="M66.5401867,9.32 L66.5401867,4.68 L62.0801867,4.68 L62.0801867,2.58 L66.5401867,2.58 L66.5401867,0 L69.1801867,0 L69.1801867,9.32 L66.5401867,9.32 Z M64.3801867,6.1 L64.7201867,8.22 C63.2268533,8.5 61.7901867,8.68666667 60.4101867,8.78 C59.0301867,8.87333333 57.67352,8.92 56.3401867,8.92 L54.7801867,8.92 L54.7801867,0.76 L57.4001867,0.76 L57.4001867,6.74 C58.53352,6.71333333 59.6668533,6.65333333 60.8001867,6.56 C61.93352,6.46666667 63.1268533,6.31333333 64.3801867,6.1 Z M59.7001867,16.16 L69.6401867,16.16 L69.6401867,18.22 L57.0601867,18.22 L57.0601867,13.1 L66.5401867,13.1 L66.5401867,12.08 L57.0401867,12.08 L57.0401867,10.02 L69.1801867,10.02 L69.1801867,15.04 L59.7001867,15.04 L59.7001867,16.16 Z" id="Shape"></path>
            </g>
        </g>
        <g id="btn/tag30[hashtag]" transform="translate(300.000000, 110.000000)">
            <rect id="Rectangle" fill="#FF447F" x="0" y="0" width="120" height="34" rx="4"></rect>
            <g id="Talk-Channel" transform="translate(6.639205, 10.730114)" fill="#FFFFFF" fill-rule="nonzero">
                <polygon id="Path" points="0 2.4609375 0 0.178977273 10.7514205 0.178977273 10.7514205 2.4609375 6.74360795 2.4609375 6.74360795 13.2698864 4.0078125 13.2698864 4.0078125 2.4609375"></polygon>
                <path d="M13.4974992,13.4552557 C12.8710787,13.4552557 12.3128401,13.3455256 11.8227833,13.1260653 C11.3327265,12.9066051 10.9460077,12.5806108 10.662627,12.1480824 C10.3792463,11.715554 10.237556,11.1754261 10.237556,10.5276989 C10.237556,9.98224432 10.337698,9.52414773 10.5379821,9.15340909 C10.7382662,8.78267045 11.0109935,8.484375 11.356164,8.25852273 C11.7013344,8.03267045 12.0944452,7.86221591 12.5354963,7.74715909 C12.9765475,7.63210227 13.4399708,7.55113636 13.9257662,7.50426136 C14.496789,7.44460227 14.9570162,7.3881392 15.306448,7.33487216 C15.6558799,7.28160511 15.909431,7.20170455 16.0671015,7.09517045 C16.2247719,6.98863636 16.3036071,6.83096591 16.3036071,6.62215909 L16.3036071,6.58380682 C16.3036071,6.17897727 16.1768316,5.86576705 15.9232804,5.64417614 C15.6697293,5.42258523 15.3107094,5.31178977 14.8462208,5.31178977 C14.356164,5.31178977 13.9662492,5.4193892 13.6764765,5.63458807 C13.3867037,5.84978693 13.1949424,6.11931818 13.1011924,6.44318182 L10.5827265,6.23863636 C10.7105674,5.64204545 10.9619878,5.12535511 11.3369878,4.68856534 C11.7119878,4.25177557 12.1967179,3.91512784 12.7911782,3.67862216 C13.3856384,3.44211648 14.074914,3.32386364 14.8590049,3.32386364 C15.4044594,3.32386364 15.9275418,3.38778409 16.428252,3.515625 C16.9289623,3.64346591 17.3742748,3.84161932 17.7641895,4.11008523 C18.1541043,4.37855114 18.4619878,4.72265625 18.6878401,5.14240057 C18.9136924,5.56214489 19.0266185,6.06392045 19.0266185,6.64772727 L19.0266185,13.2698864 L16.4442321,13.2698864 L16.4442321,11.9083807 L16.3675276,11.9083807 C16.2098571,12.2151989 15.9989196,12.4847301 15.7347151,12.7169744 C15.4705105,12.9492188 15.153039,13.1303267 14.7823003,13.2602983 C14.4115617,13.3902699 13.9832946,13.4552557 13.4974992,13.4552557 Z M14.2773287,11.5759943 C14.6778969,11.5759943 15.0315901,11.4960938 15.3384083,11.3362926 C15.6452265,11.1764915 15.8859935,10.9602273 16.0607094,10.6875 C16.2354253,10.4147727 16.3227833,10.1058239 16.3227833,9.76065341 L16.3227833,8.71875 C16.237556,8.77414773 16.1214338,8.82421875 15.9744168,8.86896307 C15.8273998,8.91370739 15.6622719,8.95419034 15.4790333,8.99041193 C15.2957946,9.02663352 15.112556,9.05859375 14.9293174,9.08629261 C14.7460787,9.11399148 14.5798855,9.13849432 14.4307378,9.15980114 C14.1111355,9.20667614 13.8320162,9.28125 13.5933799,9.38352273 C13.3547435,9.48579545 13.1693742,9.62322443 13.0372719,9.79580966 C12.9051696,9.96839489 12.8391185,10.1825284 12.8391185,10.4382102 C12.8391185,10.8089489 12.9744168,11.0912642 13.2450134,11.2851563 C13.51561,11.4790483 13.8597151,11.5759943 14.2773287,11.5759943 Z" id="Shape"></path>
                <polygon id="Path" points="23.4154529 0.178977273 23.4154529 13.2698864 20.6924415 13.2698864 20.6924415 0.178977273"></polygon>
                <path d="M27.6061339,10.4446023 L27.612526,7.17826705 L28.0088328,7.17826705 L31.1537191,3.45170455 L34.2794294,3.45170455 L30.0542873,8.38636364 L29.4086907,8.38636364 L27.6061339,10.4446023 Z M25.1388044,13.2698864 L25.1388044,0.178977273 L27.8618157,0.178977273 L27.8618157,13.2698864 L25.1388044,13.2698864 Z M31.275168,13.2698864 L28.3859635,8.99360795 L30.2013044,7.06960227 L34.4647987,13.2698864 L31.275168,13.2698864 Z" id="Shape"></path>
                <path d="M49.484655,4.76207386 L46.6849391,4.76207386 C46.6338027,4.39985795 46.5293993,4.07705966 46.3717289,3.79367898 C46.2140584,3.5102983 46.0116436,3.26846591 45.7644845,3.06818182 C45.5173255,2.86789773 45.2328794,2.71448864 44.9111465,2.60795455 C44.5894135,2.50142045 44.241047,2.44815341 43.866047,2.44815341 C43.1884902,2.44815341 42.5982914,2.61541193 42.0954505,2.94992898 C41.5926095,3.28444602 41.2026948,3.77024148 40.9257061,4.40731534 C40.6487175,5.0443892 40.5102232,5.81676136 40.5102232,6.72443182 C40.5102232,7.65767045 40.6497828,8.44176136 40.9289022,9.07670455 C41.2080215,9.71164773 41.5990016,10.1910511 42.1018425,10.5149148 C42.6046834,10.8387784 43.1863595,11.0007102 43.8468709,11.0007102 C44.2176095,11.0007102 44.5617147,10.9517045 44.8791862,10.8536932 C45.1966578,10.7556818 45.4789732,10.6118608 45.7261323,10.4222301 C45.9732914,10.2325994 46.1789022,10.0014205 46.3429647,9.72869318 C46.5070272,9.45596591 46.6210186,9.14488636 46.6849391,8.79545455 L49.484655,8.80823864 C49.4122118,9.40909091 49.2321692,9.98757102 48.9445272,10.543679 C48.6568851,11.0997869 48.2712317,11.5962358 47.7875669,12.0330256 C47.3039022,12.4698153 46.7286181,12.8149858 46.0617147,13.0685369 C45.3948112,13.3220881 44.6416152,13.4488636 43.8021266,13.4488636 C42.634513,13.4488636 41.5915442,13.1846591 40.6732203,12.65625 C39.7548965,12.1278409 39.0304647,11.3629261 38.4999249,10.3615057 C37.9693851,9.36008523 37.7041152,8.14772727 37.7041152,6.72443182 C37.7041152,5.296875 37.9725811,4.08238636 38.509513,3.08096591 C39.0464448,2.07954545 39.775138,1.31569602 40.6955925,0.789417614 C41.616047,0.263139205 42.6515584,0 43.8021266,0 C44.5606493,0 45.2648397,0.106534091 45.9146976,0.319602273 C46.5645556,0.532670455 47.140905,0.842684659 47.6437459,1.24964489 C48.1465868,1.65660511 48.5567431,2.15411932 48.8742147,2.7421875 C49.1916862,3.33025568 49.3951664,4.00355114 49.484655,4.76207386 Z" id="Path"></path>
                <path d="M53.6945121,7.59375 L53.6945121,13.2698864 L50.9715008,13.2698864 L50.9715008,0.178977273 L53.6178076,0.178977273 L53.6178076,5.18394886 L53.7328644,5.18394886 C53.9544553,4.60440341 54.3124099,4.14950284 54.806728,3.81924716 C55.3010462,3.48899148 55.9210746,3.32386364 56.6668133,3.32386364 C57.3486315,3.32386364 57.944157,3.47194602 58.45339,3.7681108 C58.9626229,4.06427557 59.3589298,4.48828125 59.6423104,5.04012784 C59.9256911,5.59197443 60.0652508,6.25142045 60.0609894,7.01846591 L60.0609894,13.2698864 L57.337978,13.2698864 L57.337978,7.50426136 C57.3422394,6.89914773 57.1898957,6.42826705 56.8809468,6.09161932 C56.5719979,5.75497159 56.1405349,5.58664773 55.5865576,5.58664773 C55.215819,5.58664773 54.8887593,5.66548295 54.6053786,5.82315341 C54.3219979,5.98082386 54.100407,6.20987216 53.9406059,6.5102983 C53.7808047,6.81072443 53.6987735,7.171875 53.6945121,7.59375 Z" id="Path"></path>
                <path d="M64.5584886,13.4552557 C63.9320681,13.4552557 63.3738295,13.3455256 62.8837727,13.1260653 C62.3937159,12.9066051 62.0069971,12.5806108 61.7236164,12.1480824 C61.4402358,11.715554 61.2985454,11.1754261 61.2985454,10.5276989 C61.2985454,9.98224432 61.3986875,9.52414773 61.5989715,9.15340909 C61.7992556,8.78267045 62.0719829,8.484375 62.4171534,8.25852273 C62.7623238,8.03267045 63.1554346,7.86221591 63.5964858,7.74715909 C64.0375369,7.63210227 64.5009602,7.55113636 64.9867556,7.50426136 C65.5577784,7.44460227 66.0180056,7.3881392 66.3674375,7.33487216 C66.7168693,7.28160511 66.9704204,7.20170455 67.1280909,7.09517045 C67.2857613,6.98863636 67.3645965,6.83096591 67.3645965,6.62215909 L67.3645965,6.58380682 C67.3645965,6.17897727 67.237821,5.86576705 66.9842698,5.64417614 C66.7307187,5.42258523 66.3716988,5.31178977 65.9072102,5.31178977 C65.4171534,5.31178977 65.0272386,5.4193892 64.7374659,5.63458807 C64.4476931,5.84978693 64.2559318,6.11931818 64.1621818,6.44318182 L61.6437159,6.23863636 C61.7715568,5.64204545 62.0229772,5.12535511 62.3979772,4.68856534 C62.7729772,4.25177557 63.2577073,3.91512784 63.8521676,3.67862216 C64.4466278,3.44211648 65.1359034,3.32386364 65.9199943,3.32386364 C66.4654488,3.32386364 66.9885312,3.38778409 67.4892414,3.515625 C67.9899517,3.64346591 68.4352642,3.84161932 68.8251789,4.11008523 C69.2150937,4.37855114 69.5229772,4.72265625 69.7488295,5.14240057 C69.9746818,5.56214489 70.0876079,6.06392045 70.0876079,6.64772727 L70.0876079,13.2698864 L67.5052215,13.2698864 L67.5052215,11.9083807 L67.428517,11.9083807 C67.2708465,12.2151989 67.059909,12.4847301 66.7957045,12.7169744 C66.5315,12.9492188 66.2140284,13.1303267 65.8432897,13.2602983 C65.4725511,13.3902699 65.044284,13.4552557 64.5584886,13.4552557 Z M65.3383181,11.5759943 C65.7388863,11.5759943 66.0925795,11.4960938 66.3993977,11.3362926 C66.7062159,11.1764915 66.9469829,10.9602273 67.1216988,10.6875 C67.2964147,10.4147727 67.3837727,10.1058239 67.3837727,9.76065341 L67.3837727,8.71875 C67.2985454,8.77414773 67.1824233,8.82421875 67.0354062,8.86896307 C66.8883892,8.91370739 66.7232613,8.95419034 66.5400227,8.99041193 C66.356784,9.02663352 66.1735454,9.05859375 65.9903068,9.08629261 C65.8070681,9.11399148 65.640875,9.13849432 65.4917272,9.15980114 C65.172125,9.20667614 64.8930056,9.28125 64.6543693,9.38352273 C64.4157329,9.48579545 64.2303636,9.62322443 64.0982613,9.79580966 C63.966159,9.96839489 63.9001079,10.1825284 63.9001079,10.4382102 C63.9001079,10.8089489 64.0354062,11.0912642 64.3060028,11.2851563 C64.5765994,11.4790483 64.9207045,11.5759943 65.3383181,11.5759943 Z" id="Shape"></path>
                <path d="M74.4764423,7.59375 L74.4764423,13.2698864 L71.753431,13.2698864 L71.753431,3.45170455 L74.3486014,3.45170455 L74.3486014,5.18394886 L74.4636582,5.18394886 C74.6809878,4.61292614 75.0453344,4.16015625 75.556698,3.8256392 C76.0680616,3.49112216 76.68809,3.32386364 77.4167832,3.32386364 C78.0986014,3.32386364 78.6930616,3.47301136 79.2001639,3.77130682 C79.7072662,4.06960227 80.1014423,4.4946733 80.3826923,5.04651989 C80.6639423,5.59836648 80.8045673,6.25568182 80.8045673,7.01846591 L80.8045673,13.2698864 L78.081556,13.2698864 L78.081556,7.50426136 C78.0858173,6.90340909 77.9324082,6.43359375 77.6213287,6.09481534 C77.3102491,5.75603693 76.8819821,5.58664773 76.3365275,5.58664773 C75.9700503,5.58664773 75.647252,5.66548295 75.3681327,5.82315341 C75.0890133,5.98082386 74.8716838,6.20987216 74.716144,6.5102983 C74.5606043,6.81072443 74.4807037,7.171875 74.4764423,7.59375 Z" id="Path"></path>
                <path d="M85.2189699,7.59375 L85.2189699,13.2698864 L82.4959585,13.2698864 L82.4959585,3.45170455 L85.091129,3.45170455 L85.091129,5.18394886 L85.2061858,5.18394886 C85.4235154,4.61292614 85.787862,4.16015625 86.2992256,3.8256392 C86.8105892,3.49112216 87.4306176,3.32386364 88.1593108,3.32386364 C88.841129,3.32386364 89.4355892,3.47301136 89.9426915,3.77130682 C90.4497938,4.06960227 90.8439699,4.4946733 91.1252199,5.04651989 C91.4064699,5.59836648 91.5470949,6.25568182 91.5470949,7.01846591 L91.5470949,13.2698864 L88.8240835,13.2698864 L88.8240835,7.50426136 C88.8283449,6.90340909 88.6749358,6.43359375 88.3638563,6.09481534 C88.0527767,5.75603693 87.6245097,5.58664773 87.0790551,5.58664773 C86.7125779,5.58664773 86.3897796,5.66548295 86.1106603,5.82315341 C85.8315409,5.98082386 85.6142114,6.20987216 85.4586716,6.5102983 C85.3031318,6.81072443 85.2232313,7.171875 85.2189699,7.59375 Z" id="Path"></path>
                <path d="M97.712918,13.4616477 C96.7029748,13.4616477 95.8347219,13.2560369 95.1081594,12.8448153 C94.3815969,12.4335938 93.822293,11.8497869 93.4302475,11.0933949 C93.038202,10.3370028 92.8421793,9.44105114 92.8421793,8.40553977 C92.8421793,7.39559659 93.038202,6.50923295 93.4302475,5.74644886 C93.822293,4.98366477 94.3752049,4.38920455 95.0889833,3.96306818 C95.8027617,3.53693182 96.641185,3.32386364 97.6042532,3.32386364 C98.2519805,3.32386364 98.8560288,3.4272017 99.4163981,3.63387784 C99.9767674,3.84055398 100.466824,4.15056818 100.886569,4.56392045 C101.306313,4.97727273 101.633373,5.49609375 101.867748,6.12038352 C102.102123,6.7446733 102.21931,7.47443182 102.21931,8.30965909 L102.21931,9.05752841 L93.928827,9.05752841 L93.928827,7.37002841 L99.6560998,7.37002841 C99.6560998,6.97798295 99.5708725,6.63068182 99.400418,6.328125 C99.2299634,6.02556818 98.9945231,5.78799716 98.6940969,5.61541193 C98.3936708,5.4428267 98.0453043,5.35653409 97.6489975,5.35653409 C97.2356452,5.35653409 96.8702333,5.45134943 96.5527617,5.64098011 C96.2352901,5.8306108 95.9870657,6.08416193 95.8080884,6.40163352 C95.6291111,6.71910511 95.5374918,7.07173295 95.5332305,7.45951705 L95.5332305,9.06392045 C95.5332305,9.54971591 95.6237844,9.96946023 95.8048924,10.3231534 C95.9860003,10.6768466 96.2427475,10.9495739 96.5751339,11.1413352 C96.9075202,11.3330966 97.3016964,11.4289773 97.7576623,11.4289773 C98.0602191,11.4289773 98.3372077,11.3863636 98.5886282,11.3011364 C98.8400486,11.2159091 99.0552475,11.0880682 99.2342248,10.9176136 C99.413202,10.7471591 99.5495657,10.5383523 99.6433157,10.2911932 L102.161782,10.4573864 C102.033941,11.0625 101.772932,11.5898438 101.378756,12.0394176 C100.98458,12.4889915 100.477478,12.8384233 99.8574492,13.0877131 C99.2374208,13.3370028 98.522577,13.4616477 97.712918,13.4616477 Z" id="Path"></path>
                <polygon id="Path" points="106.269366 0.178977273 106.269366 13.2698864 103.546355 13.2698864 103.546355 0.178977273"></polygon>
            </g>
        </g>
        <g id="btn/tag30[hashtag]" transform="translate(200.000000, 70.000000)">
            <rect id="Rectangle" fill="#FF447F" x="0" y="0" width="76" height="30" rx="3.53846154"></rect>
            <g id="카톡채널" transform="translate(7.069767, 6.423529)" fill="#FFFFFF" fill-rule="nonzero">
                <path d="M15.0939535,6.21176471 L15.0939535,8.13529412 L12.8139535,8.13529412 L12.8139535,16.2352941 L10.4809302,16.2352941 L10.4809302,0 L12.8139535,0 L12.8139535,6.21176471 L15.0939535,6.21176471 Z M1.00744186,1.57058824 L8.48372093,1.57058824 C8.48372093,2.81764706 8.38945736,4.01470588 8.20093023,5.16176471 C8.0124031,6.30882353 7.65596899,7.39705882 7.13162791,8.42647059 C6.60728682,9.45588235 5.87379845,10.4235294 4.93116279,11.3294118 C3.98852713,12.2352941 2.7572093,13.0764706 1.2372093,13.8529412 L0,12.0529412 C1.34325581,11.3823529 2.42434109,10.6676471 3.24325581,9.90882353 C4.06217054,9.15 4.70139535,8.32352941 5.16093023,7.42941176 L0.441860465,7.88823529 L0.141395349,5.91176471 L5.83255814,5.57647059 C5.91503876,5.23529412 5.98573643,4.88823529 6.04465116,4.53529412 C6.10356589,4.18235294 6.1448062,3.81176471 6.16837209,3.42352941 L1.00744186,3.42352941 L1.00744186,1.57058824 Z" id="Shape"></path>
                <path d="M24.3907527,8.62941176 L30.5944736,8.62941176 L30.5944736,10.4823529 L15.8716829,10.4823529 L15.8716829,8.62941176 L22.0577294,8.62941176 L22.0577294,7.46470588 L17.7098224,7.46470588 L17.7098224,0.405882353 L28.9154038,0.405882353 L28.9154038,2.17058824 L20.0251713,2.17058824 L20.0251713,3.05294118 L28.5265666,3.05294118 L28.5265666,4.74705882 L20.0251713,4.74705882 L20.0251713,5.7 L29.0391248,5.7 L29.0391248,7.46470588 L24.3907527,7.46470588 L24.3907527,8.62941176 Z M17.5154038,13.2705882 L17.5154038,11.4352941 L28.7916829,11.4352941 L28.7916829,16.2882353 L26.4586596,16.2882353 L26.4586596,13.2705882 L17.5154038,13.2705882 Z" id="Shape"></path>
                <path d="M43.5852263,0 L45.7945286,0 L45.7945286,16.2529412 L43.5852263,16.2529412 L43.5852263,8.13529412 L42.2596449,8.13529412 L42.2596449,15.5294118 L40.0856914,15.5294118 L40.0856914,0.264705882 L42.2596449,0.264705882 L42.2596449,6.22941176 L43.5852263,6.22941176 L43.5852263,0 Z M36.7629007,4.64117647 L36.7629007,4.90588235 C36.7629007,5.51764706 36.8188697,6.12647059 36.9308076,6.73235294 C37.0427456,7.33823529 37.2224356,7.91176471 37.4698774,8.45294118 C37.7173193,8.99411765 38.0384045,9.48823529 38.4331332,9.93529412 C38.8278619,10.3823529 39.3139084,10.7588235 39.8912728,11.0647059 L38.6540635,12.7941176 C37.9117379,12.4176471 37.3049162,11.9205882 36.8335983,11.3029412 C36.3622805,10.6852941 35.9793348,9.98823529 35.6847611,9.21176471 C35.4137534,10.0588235 35.0366991,10.8264706 34.5535983,11.5147059 C34.0704976,12.2029412 33.4577844,12.7529412 32.7154588,13.1647059 L31.4075518,11.4176471 C31.9849162,11.0882353 32.4739084,10.6794118 32.8745286,10.1911765 C33.2751487,9.70294118 33.5991797,9.17352941 33.8466216,8.60294118 C34.0940635,8.03235294 34.2737534,7.42941176 34.3856914,6.79411765 C34.4976294,6.15882353 34.5535983,5.52941176 34.5535983,4.90588235 L34.5535983,4.64117647 L31.9554588,4.64117647 L31.9554588,2.75294118 L34.5535983,2.75294118 L34.5535983,0.547058824 L36.7629007,0.547058824 L36.7629007,2.75294118 L39.3433658,2.75294118 L39.3433658,4.64117647 L36.7629007,4.64117647 Z" id="Shape"></path>
                <path d="M58.8029557,8.22352941 L58.8029557,4.12941176 L54.8615603,4.12941176 L54.8615603,2.27647059 L58.8029557,2.27647059 L58.8029557,0 L61.1359789,0 L61.1359789,8.22352941 L58.8029557,8.22352941 Z M56.8941184,5.38235294 L57.1945836,7.25294118 C55.8748936,7.5 54.6052812,7.66470588 53.3857464,7.74705882 C52.1662115,7.82941176 50.9672967,7.87058824 49.7890022,7.87058824 L48.4103975,7.87058824 L48.4103975,0.670588235 L50.7257464,0.670588235 L50.7257464,5.94705882 C51.7272967,5.92352941 52.7288471,5.87058824 53.7303975,5.78823529 C54.7319479,5.70588235 55.7865216,5.57058824 56.8941184,5.38235294 Z M52.7583045,14.2588235 L61.5424905,14.2588235 L61.5424905,16.0764706 L50.4252812,16.0764706 L50.4252812,11.5588235 L58.8029557,11.5588235 L58.8029557,10.6588235 L50.4076068,10.6588235 L50.4076068,8.84117647 L61.1359789,8.84117647 L61.1359789,13.2705882 L52.7583045,13.2705882 L52.7583045,14.2588235 Z" id="Shape"></path>
            </g>
        </g>
        <g id="btn/tag30[hashtag]" transform="translate(300.000000, 70.000000)">
            <rect id="Rectangle" fill="#FF447F" x="0" y="0" width="106" height="30" rx="3.52941176"></rect>
            <g id="Talk-Channel" transform="translate(5.864631, 9.467747)" fill="#FFFFFF" fill-rule="nonzero">
                <polygon id="Path" points="0 2.17141544 0 0.157921123 9.49708807 0.157921123 9.49708807 2.17141544 5.95685369 2.17141544 5.95685369 11.7087233 3.54023438 11.7087233 3.54023438 2.17141544"></polygon>
                <path d="M11.9227909,11.8722844 C11.3694529,11.8722844 10.8763421,11.7754637 10.4434586,11.5818224 C10.010575,11.388181 9.66897347,11.1005389 9.41865387,10.7188962 C9.16833427,10.3372535 9.04317447,9.86067012 9.04317447,9.28914606 C9.04317447,8.80786263 9.13163327,8.40365976 9.30855089,8.07653743 C9.4854685,7.74941511 9.72637759,7.48621324 10.0312782,7.28693182 C10.3361787,7.0876504 10.6834266,6.93724933 11.0730218,6.83572861 C11.4626169,6.73420789 11.8719742,6.66276738 12.3010935,6.62140709 C12.8054969,6.56876671 13.212031,6.51894636 13.5206958,6.47194602 C13.8293605,6.42494569 14.0533307,6.35444519 14.1926063,6.26044452 C14.3318819,6.16644385 14.4015196,6.02732286 14.4015196,5.84308155 L14.4015196,5.80924131 C14.4015196,5.45203877 14.2895346,5.1756768 14.0655644,4.98015541 C13.8415942,4.78463402 13.52446,4.68687333 13.1141617,4.68687333 C12.6812782,4.68687333 12.3368534,4.781814 12.0808875,4.97169535 C11.8249216,5.1615767 11.6555324,5.3993984 11.5727199,5.68516043 L9.34807503,5.50467914 C9.46100117,4.9782754 9.68308924,4.52237216 10.0143392,4.13696942 C10.3455892,3.75156668 10.7737675,3.45452457 11.298874,3.24584308 C11.8239806,3.0371616 12.4328407,2.93282086 13.1254543,2.93282086 C13.6072725,2.93282086 14.0693286,2.98922126 14.5116226,3.10202206 C14.9539167,3.21482286 15.347276,3.3896641 15.6917007,3.62654579 C16.0361255,3.86342747 16.3080892,4.16704963 16.5075921,4.53741227 C16.7070949,4.9077749 16.8068463,5.35051805 16.8068463,5.86564171 L16.8068463,11.7087233 L14.5257384,11.7087233 L14.5257384,10.5073947 L14.4579827,10.5073947 C14.3187071,10.7781166 14.132379,11.0159383 13.8989983,11.2208598 C13.6656176,11.4257813 13.3851844,11.5855824 13.0576986,11.7002632 C12.7302128,11.814944 12.3519103,11.8722844 11.9227909,11.8722844 Z M12.6116404,10.2141126 C12.9654756,10.2141126 13.2779046,10.1436121 13.5489273,10.0026111 C13.81995,9.86161013 14.0326276,9.67078877 14.18696,9.43014706 C14.3412924,9.18950535 14.4184586,8.91690341 14.4184586,8.61234124 L14.4184586,7.69301471 C14.3431745,7.74189505 14.2405999,7.78607537 14.1107348,7.82555565 C13.9808698,7.86503593 13.8350069,7.90075618 13.6731461,7.93271641 C13.5112853,7.96467664 13.3494245,7.99287684 13.1875637,8.01731701 C13.0257029,8.04175719 12.8788989,8.06337734 12.7471517,8.08217747 C12.4648364,8.12353777 12.218281,8.18933824 12.0074855,8.27957888 C11.7966901,8.36981952 11.6329472,8.49108038 11.5162569,8.64336146 C11.3995665,8.79564255 11.3412213,8.98458389 11.3412213,9.21018549 C11.3412213,9.53730782 11.4607348,9.78640959 11.6997618,9.95749081 C11.9387888,10.128572 12.2427483,10.2141126 12.6116404,10.2141126 Z" id="Shape"></path>
                <polygon id="Path" points="20.6836501 0.157921123 20.6836501 11.7087233 18.2783234 11.7087233 18.2783234 0.157921123"></polygon>
                <path d="M24.3854183,9.21582553 L24.3910646,6.33376504 L24.7411356,6.33376504 L27.5191186,3.04562166 L30.2801626,3.04562166 L26.5479538,7.39973262 L25.9776768,7.39973262 L24.3854183,9.21582553 Z M22.2059439,11.7087233 L22.2059439,0.157921123 L24.6112706,0.157921123 L24.6112706,11.7087233 L22.2059439,11.7087233 Z M27.6263984,11.7087233 L25.0742677,7.93553643 L26.6778189,6.23788436 L30.4439055,11.7087233 L27.6263984,11.7087233 Z" id="Shape"></path>
                <path d="M43.7114453,4.20182988 L41.2383629,4.20182988 C41.1931924,3.88222761 41.1009694,3.59740558 40.9616938,3.3473638 C40.8224183,3.09732203 40.6436185,2.88394051 40.4252947,2.70721925 C40.2069708,2.53049799 39.9557102,2.39513703 39.6715127,2.30113636 C39.3873153,2.2071357 39.0795916,2.16013536 38.7483416,2.16013536 C38.149833,2.16013536 37.6284907,2.30771641 37.1843146,2.60287851 C36.7401384,2.89804061 36.3957137,3.32668366 36.1510404,3.88880765 C35.9063671,4.45093165 35.7840305,5.1324365 35.7840305,5.93332219 C35.7840305,6.75676805 35.9073082,7.44861297 36.1538636,8.00885695 C36.400419,8.56910094 36.7457847,8.99210394 37.1899609,9.27786598 C37.634137,9.56362801 38.1479509,9.70650902 38.7314026,9.70650902 C39.0588884,9.70650902 39.3628479,9.66326872 39.6432812,9.5767881 C39.9237144,9.49030749 40.173093,9.36340658 40.3914168,9.19608539 C40.6097407,9.0287642 40.7913636,8.82478275 40.9362854,8.58414104 C41.0812073,8.34349933 41.1818998,8.06901738 41.2383629,7.76069519 L43.7114453,7.77197527 C43.6474538,8.30213904 43.4884161,8.81256267 43.2343323,9.30324616 C42.9802485,9.79392965 42.639588,10.2319728 42.2123508,10.6173755 C41.7851136,11.0027782 41.276946,11.3073404 40.6878479,11.531062 C40.0987499,11.7547836 39.4334268,11.8666444 38.6918785,11.8666444 C37.6604864,11.8666444 36.7391974,11.6335227 35.9280113,11.1672794 C35.1168252,10.7010361 34.4769104,10.0261113 34.008267,9.14250501 C33.5396235,8.25889873 33.3053018,7.18917112 33.3053018,5.93332219 C33.3053018,4.67371324 33.5424467,3.60210561 34.0167364,2.71849933 C34.4910262,1.83489305 35.1347052,1.16090826 35.9477734,0.696544953 C36.7608416,0.232181651 37.6755433,0 38.6918785,0 C39.3619069,0 39.9839417,0.0940006684 40.5579829,0.282002005 C41.1320241,0.470003342 41.6411328,0.743545287 42.0853089,1.10262784 C42.529485,1.46171039 42.8917897,1.90069352 43.1722229,2.41957721 C43.4526562,2.9384609 43.632397,3.53254512 43.7114453,4.20182988 Z" id="Path"></path>
                <path d="M47.4301524,6.70036765 L47.4301524,11.7087233 L45.0248257,11.7087233 L45.0248257,0.157921123 L47.3623967,0.157921123 L47.3623967,4.57407253 L47.4640302,4.57407253 C47.6597689,4.06270889 47.975962,3.66132604 48.4126098,3.36992396 C48.8492575,3.07852189 49.3969493,2.93282086 50.0556851,2.93282086 C50.6579578,2.93282086 51.1840054,3.06348178 51.6338278,3.32480364 C52.0836503,3.5861255 52.4337213,3.96024816 52.6840409,4.44717162 C52.9343605,4.93409509 53.0576382,5.51595922 53.053874,6.19276404 L53.053874,11.7087233 L50.6485473,11.7087233 L50.6485473,6.62140709 C50.6523115,6.08748329 50.5177412,5.67200033 50.2448363,5.37495822 C49.9719315,5.07791611 49.5908058,4.92939505 49.1014592,4.92939505 C48.7739734,4.92939505 48.4850707,4.99895555 48.2347511,5.13807654 C47.9844315,5.27719753 47.7886929,5.47929896 47.6475352,5.74438085 C47.5063775,6.00946273 47.4339166,6.328125 47.4301524,6.70036765 Z" id="Path"></path>
                <path d="M57.0266649,11.8722844 C56.4733269,11.8722844 55.9802161,11.7754637 55.5473325,11.5818224 C55.114449,11.388181 54.7728475,11.1005389 54.5225278,10.7188962 C54.2722082,10.3372535 54.1470484,9.86067012 54.1470484,9.28914606 C54.1470484,8.80786263 54.2355073,8.40365976 54.4124249,8.07653743 C54.5893425,7.74941511 54.8302516,7.48621324 55.1351521,7.28693182 C55.4400527,7.0876504 55.7873006,6.93724933 56.1768957,6.83572861 C56.5664909,6.73420789 56.9758482,6.66276738 57.4049675,6.62140709 C57.9093709,6.56876671 58.315905,6.51894636 58.6245698,6.47194602 C58.9332345,6.42494569 59.1572047,6.35444519 59.2964803,6.26044452 C59.4357558,6.16644385 59.5053936,6.02732286 59.5053936,5.84308155 L59.5053936,5.80924131 C59.5053936,5.45203877 59.3934085,5.1756768 59.1694384,4.98015541 C58.9454682,4.78463402 58.628334,4.68687333 58.2180357,4.68687333 C57.7851521,4.68687333 57.4407274,4.781814 57.1847615,4.97169535 C56.9287956,5.1615767 56.7594064,5.3993984 56.6765939,5.68516043 L54.451949,5.50467914 C54.5648751,4.9782754 54.7869632,4.52237216 55.1182132,4.13696942 C55.4494632,3.75156668 55.8776415,3.45452457 56.402748,3.24584308 C56.9278546,3.0371616 57.5367146,2.93282086 58.2293283,2.93282086 C58.7111465,2.93282086 59.1732026,2.98922126 59.6154966,3.10202206 C60.0577906,3.21482286 60.45115,3.3896641 60.7955747,3.62654579 C61.1399994,3.86342747 61.4119632,4.16704963 61.6114661,4.53741227 C61.8109689,4.9077749 61.9107203,5.35051805 61.9107203,5.86564171 L61.9107203,11.7087233 L59.6296124,11.7087233 L59.6296124,10.5073947 L59.5618567,10.5073947 C59.4225811,10.7781166 59.236253,11.0159383 59.0028723,11.2208598 C58.7694916,11.4257813 58.4890584,11.5855824 58.1615726,11.7002632 C57.8340868,11.814944 57.4557842,11.8722844 57.0266649,11.8722844 Z M57.7155144,10.2141126 C58.0693496,10.2141126 58.3817786,10.1436121 58.6528013,10.0026111 C58.923824,9.86161013 59.1365016,9.67078877 59.290834,9.43014706 C59.4451663,9.18950535 59.5223325,8.91690341 59.5223325,8.61234124 L59.5223325,7.69301471 C59.4470484,7.74189505 59.3444739,7.78607537 59.2146088,7.82555565 C59.0847438,7.86503593 58.9388808,7.90075618 58.77702,7.93271641 C58.6151592,7.96467664 58.4532984,7.99287684 58.2914376,8.01731701 C58.1295769,8.04175719 57.9827729,8.06337734 57.8510257,8.08217747 C57.5687104,8.12353777 57.322155,8.18933824 57.1113595,8.27957888 C56.9005641,8.36981952 56.7368212,8.49108038 56.6201308,8.64336146 C56.5034405,8.79564255 56.4450953,8.98458389 56.4450953,9.21018549 C56.4450953,9.53730782 56.5646088,9.78640959 56.8036358,9.95749081 C57.0426628,10.128572 57.3466223,10.2141126 57.7155144,10.2141126 Z" id="Shape"></path>
                <path d="M65.787524,6.70036765 L65.787524,11.7087233 L63.3821973,11.7087233 L63.3821973,3.04562166 L65.6745979,3.04562166 L65.6745979,4.57407253 L65.7762314,4.57407253 C65.9682059,4.07022894 66.2900454,3.6707261 66.7417499,3.375564 C67.1934544,3.08040191 67.7411462,2.93282086 68.3848252,2.93282086 C68.9870979,2.93282086 69.5122044,3.06442179 69.9601448,3.32762366 C70.4080851,3.59082553 70.756274,3.9658882 71.0047115,4.45281166 C71.253149,4.93973513 71.3773678,5.51971925 71.3773678,6.19276404 L71.3773678,11.7087233 L68.9720411,11.7087233 L68.9720411,6.62140709 C68.9758053,6.09124332 68.8402939,5.67670037 68.565507,5.37777824 C68.2907201,5.07885612 67.9124175,4.92939505 67.4305993,4.92939505 C67.1068777,4.92939505 66.8217392,4.99895555 66.5751838,5.13807654 C66.3286285,5.27719753 66.136654,5.47929896 65.9992606,5.74438085 C65.8618671,6.00946273 65.7912883,6.328125 65.787524,6.70036765 Z" id="Path"></path>
                <path d="M75.2767568,6.70036765 L75.2767568,11.7087233 L72.87143,11.7087233 L72.87143,3.04562166 L75.1638306,3.04562166 L75.1638306,4.57407253 L75.2654641,4.57407253 C75.4574386,4.07022894 75.7792781,3.6707261 76.2309826,3.375564 C76.6826872,3.08040191 77.2303789,2.93282086 77.8740579,2.93282086 C78.4763306,2.93282086 79.0014372,3.06442179 79.4493775,3.32762366 C79.8973178,3.59082553 80.2455068,3.9658882 80.4939443,4.45281166 C80.7423818,4.93973513 80.8666005,5.51971925 80.8666005,6.19276404 L80.8666005,11.7087233 L78.4612738,11.7087233 L78.4612738,6.62140709 C78.465038,6.09124332 78.3295266,5.67670037 78.0547397,5.37777824 C77.7799528,5.07885612 77.4016502,4.92939505 76.919832,4.92939505 C76.5961104,4.92939505 76.310972,4.99895555 76.0644166,5.13807654 C75.8178612,5.27719753 75.6258867,5.47929896 75.4884933,5.74438085 C75.3510998,6.00946273 75.280521,6.328125 75.2767568,6.70036765 Z" id="Path"></path>
                <path d="M86.3130775,11.8779245 C85.420961,11.8779245 84.6540044,11.6965032 84.0122075,11.3336606 C83.3704106,10.970818 82.8763588,10.4556944 82.530052,9.78828961 C82.1837451,9.12088486 82.0105917,8.33033924 82.0105917,7.41665274 C82.0105917,6.5255264 82.1837451,5.74344084 82.530052,5.07039606 C82.8763588,4.39735127 83.3647643,3.87282754 83.9952686,3.49682487 C84.6257728,3.12082219 85.3663801,2.93282086 86.2170903,2.93282086 C86.7892494,2.93282086 87.3228254,3.0240015 87.8178183,3.2063628 C88.3128112,3.3887241 88.7456947,3.66226604 89.1164689,4.02698864 C89.487243,4.39171123 89.7761457,4.84949449 89.983177,5.4003384 C90.1902082,5.95118232 90.2937238,6.5950869 90.2937238,7.33205214 L90.2937238,7.99193683 L82.9704639,7.99193683 L82.9704639,6.50296624 L88.0295548,6.50296624 C88.0295548,6.15704378 87.9542707,5.8506016 87.8037025,5.58363971 C87.6531343,5.31667781 87.445162,5.10705632 87.1797856,4.95477523 C86.9144092,4.80249415 86.6066855,4.72635361 86.2566145,4.72635361 C85.8914866,4.72635361 85.5687061,4.8100142 85.2882728,4.97733539 C85.0078396,5.14465658 84.7885747,5.36837818 84.6304781,5.64850017 C84.4723815,5.92862216 84.3914511,6.23976437 84.3876869,6.5819268 L84.3876869,7.99757687 C84.3876869,8.42621992 84.4676762,8.79658255 84.6276549,9.10866477 C84.7876336,9.42074699 85.014427,9.6613887 85.3080349,9.83058991 C85.6016429,9.99979111 85.9498318,10.0843917 86.3526017,10.0843917 C86.6198602,10.0843917 86.8645335,10.0467914 87.0866216,9.97159091 C87.3087096,9.89639037 87.498802,9.78358957 87.6568985,9.6331885 C87.8149951,9.48278743 87.9354497,9.29854612 88.0182622,9.08046457 L90.2429071,9.22710561 C90.1299809,9.76102941 89.8994234,10.2263327 89.5512345,10.6230155 C89.2030456,11.0196984 88.7551052,11.3280206 88.2074135,11.5479821 C87.6597217,11.7679437 87.0282764,11.8779245 86.3130775,11.8779245 Z" id="Path"></path>
                <polygon id="Path" points="93.8712733 0.157921123 93.8712733 11.7087233 91.4659466 11.7087233 91.4659466 0.157921123"></polygon>
            </g>
        </g>
    </g>
</svg>